<?xml version="1.0" encoding="UTF-8" standalone="no"?>
<svg
   width="150"
   height="150"
   viewBox="0 0 150 150"
   version="1.1"
   id="svg4"
   sodipodi:docname="logosimples.svg"
   inkscape:version="1.2.1 (9c6d41e410, 2022-07-14)"
   xmlns:inkscape="http://www.inkscape.org/namespaces/inkscape"
   xmlns:sodipodi="http://sodipodi.sourceforge.net/DTD/sodipodi-0.dtd"
   xmlns="http://www.w3.org/2000/svg"
   xmlns:svg="http://www.w3.org/2000/svg">
  <defs
     id="defs8" />
  <sodipodi:namedview
     id="namedview6"
     pagecolor="#ffffff"
     bordercolor="#000000"
     borderopacity="0.25"
     inkscape:showpageshadow="2"
     inkscape:pageopacity="0.0"
     inkscape:pagecheckerboard="0"
     inkscape:deskcolor="#d1d1d1"
     showgrid="false"
     inkscape:zoom="2.515"
     inkscape:cx="43.737575"
     inkscape:cy="60.83499"
     inkscape:window-width="1649"
     inkscape:window-height="1008"
     inkscape:window-x="249"
     inkscape:window-y="0"
     inkscape:window-maximized="0"
     inkscape:current-layer="svg4" />
  <path
     d="m 150.20309,57.072344 v 35.739178 c 0,12.500958 -7.44822,23.308888 -18.26973,28.498718 l -0.025,0.038 -41.903438,20.43655 -0.02719,0.004 c -4.408885,2.13818 -9.382342,3.35019 -14.647332,3.35019 -5.381386,0 -10.452745,-1.26687 -14.930163,-3.49365 l -0.06527,-0.008 -19.310764,-9.38073 c -1.262945,-0.61391 -2.679271,-0.97151 -4.184797,-0.97151 -2.43125,0 -4.635149,0.90928 -6.298407,2.3829 l -13.847794,13.42922 c -1.73614,1.83226 -4.220694,2.98731 -6.991341,2.98731 -5.247584,0 -9.4987374,-4.12233 -9.4987374,-9.2109 V 90.376941 88.150166 74.089089 c 0,-3.048499 2.5487337,-5.518945 5.6935864,-5.518945 0.877861,0 1.706771,0.197257 2.451919,0.543246 l 0.0174,-0.01054 46.088241,21.418614 15.257592,7.413442 0.02176,0.001 c 1.640415,0.81645 3.497303,1.281636 5.469498,1.287965 v -0.001 c 0.01632,0 0.03046,0.001 0.04786,0.001 1.943912,0 3.781219,-0.446199 5.410756,-1.235222 l 0.01087,-0.0021 15.477331,-7.549517 0.009,-0.01477 c 3.99771,-1.916651 6.74985,-5.908181 6.74985,-10.527343 V 66.693577 h -10e-4 v -1.72256 c 0,-4.698276 -2.84679,-8.748881 -6.95762,-10.624393 l -15.254333,-7.411335 -0.02285,-0.0032 c -1.64259,-0.816449 -3.49839,-1.281635 -5.469499,-1.28902 v 0.0021 c -0.01632,0 -0.03264,-0.0021 -0.04786,-0.0021 -1.946088,0 -3.782308,0.447255 -5.409668,1.237333 l -0.01197,0.0021 -14.046862,6.852268 h -0.0174 c -0.810417,0.392402 -1.720912,0.619193 -2.690149,0.619193 -0.969236,0 -1.882995,-0.227846 -2.694499,-0.622358 H 50.2655 L 13.440638,35.891072 C 13.268764,35.824616 13.106681,35.736009 12.94351,35.648457 L 12.9,35.628416 v -0.001 c -1.491385,-0.802736 -2.512836,-2.328041 -2.512836,-4.098069 0,-1.396614 0.637455,-2.635001 1.632799,-3.494699 l -0.0044,-0.02531 c 1.971108,-1.598088 4.132583,-2.982044 6.45614,-4.097014 l 0.02611,-0.03798 41.903444,-20.4354948 0.02937,-0.00422 c 4.407798,-2.1392237 9.377992,-3.35018469 14.64407,-3.35018469 5.380297,0 10.453833,1.26370319 14.932337,3.49364339 l 0.06418,0.00527 41.298626,20.0641901 c 11.12718,5.07802 18.83321,16.045234 18.83321,28.76349 z"
     id="path202"
     style="fill:#ffffff;stroke-width:1.0712" />
</svg>
