<?xml version="1.0" encoding="UTF-8" standalone="no"?>
<svg
   width="149.99995"
   height="150.00008"
   viewBox="0 0 149.99995 150.00008"
   version="1.1"
   id="svg4"
   sodipodi:docname="logosimples.svg"
   inkscape:version="1.2.1 (9c6d41e410, 2022-07-14)"
   xmlns:inkscape="http://www.inkscape.org/namespaces/inkscape"
   xmlns:sodipodi="http://sodipodi.sourceforge.net/DTD/sodipodi-0.dtd"
   xmlns="http://www.w3.org/2000/svg"
   xmlns:svg="http://www.w3.org/2000/svg">
  <defs
     id="defs8" />
  <sodipodi:namedview
     id="namedview6"
     pagecolor="#ffffff"
     bordercolor="#000000"
     borderopacity="0.25"
     inkscape:showpageshadow="2"
     inkscape:pageopacity="0.0"
     inkscape:pagecheckerboard="0"
     inkscape:deskcolor="#d1d1d1"
     showgrid="false"
     inkscape:zoom="2.515"
     inkscape:cx="43.33996"
     inkscape:cy="61.033797"
     inkscape:window-width="1649"
     inkscape:window-height="1008"
     inkscape:window-x="249"
     inkscape:window-y="0"
     inkscape:window-maximized="0"
     inkscape:current-layer="svg4" />
  <path
     d="m 149.99996,56.987899 v 35.739178 c 0,12.500963 -7.44822,23.308893 -18.26973,28.498723 l -0.025,0.038 -41.903435,20.43655 -0.02719,0.004 c -4.408885,2.13818 -9.382342,3.35019 -14.647332,3.35019 -5.381386,0 -10.452745,-1.26687 -14.930163,-3.49365 l -0.06527,-0.008 -19.310764,-9.38073 c -1.262945,-0.61391 -2.679271,-0.97151 -4.184797,-0.97151 -2.43125,0 -4.635149,0.90928 -6.298407,2.3829 l -13.847794,13.42922 c -1.73614,1.83226 -4.220694,2.98731 -6.9913406,2.98731 C 4.2511534,150.00008 0,145.87775 0,140.78918 V 90.292496 88.065721 74.004644 c 0,-3.048499 2.5487337,-5.518945 5.6935864,-5.518945 0.877861,0 1.706771,0.197257 2.451919,0.543246 l 0.0174,-0.01054 46.0882406,21.418614 15.257592,7.413442 0.02176,0.001 c 1.640415,0.81645 3.497303,1.281636 5.469498,1.287965 v -0.001 c 0.01632,0 0.03046,0.001 0.04786,0.001 1.943912,0 3.781219,-0.446199 5.410756,-1.235222 l 0.01087,-0.0021 15.477331,-7.549517 0.009,-0.01477 c 3.99771,-1.916651 6.749847,-5.908181 6.749847,-10.527343 V 66.609132 h -10e-4 v -1.72256 c 0,-4.698276 -2.846787,-8.748881 -6.957617,-10.624393 l -15.254333,-7.411335 -0.02285,-0.0032 c -1.64259,-0.816449 -3.49839,-1.281635 -5.469499,-1.28902 v 0.0021 c -0.01632,0 -0.03264,-0.0021 -0.04786,-0.0021 -1.946088,0 -3.782308,0.447255 -5.409668,1.237333 l -0.01197,0.0021 -14.046862,6.852268 h -0.0174 c -0.810417,0.392402 -1.720912,0.619193 -2.690149,0.619193 -0.969236,0 -1.882995,-0.227846 -2.694499,-0.622358 h -0.01958 L 13.237511,35.806627 c -0.171874,-0.06646 -0.333957,-0.155063 -0.497128,-0.242615 l -0.04351,-0.02004 v -10e-4 c -1.491385,-0.802736 -2.512836,-2.328041 -2.512836,-4.098069 0,-1.396614 0.637455,-2.635001 1.632799,-3.494699 l -0.0044,-0.02531 c 1.971108,-1.598088 4.132583,-2.982044 6.45614,-4.097014 L 18.294686,23.7899 60.19813,3.3544047 60.2275,3.3501847 C 64.635298,1.210961 69.605492,0 74.87157,0 80.251867,0 85.325403,1.2637032 89.803907,3.4936434 l 0.06418,0.00527 41.298623,20.0641896 c 11.12718,5.07802 18.83321,16.045234 18.83321,28.76349 z"
     id="path202"
     style="fill:#ffffff;stroke-width:1.0712" />
</svg>
