<?xml version="1.0" encoding="UTF-8" standalone="no"?>
<svg
   width="600"
   height="200"
   viewBox="0 0 600 200"
   version="1.1"
   id="svg4"
   sodipodi:docname="logo.svg"
   inkscape:version="1.2.1 (9c6d41e410, 2022-07-14)"
   xmlns:inkscape="http://www.inkscape.org/namespaces/inkscape"
   xmlns:sodipodi="http://sodipodi.sourceforge.net/DTD/sodipodi-0.dtd"
   xmlns="http://www.w3.org/2000/svg"
   xmlns:svg="http://www.w3.org/2000/svg">
  <defs
     id="defs8" />
  <sodipodi:namedview
     id="namedview6"
     pagecolor="#ffffff"
     bordercolor="#000000"
     borderopacity="0.25"
     inkscape:showpageshadow="2"
     inkscape:pageopacity="0.0"
     inkscape:pagecheckerboard="0"
     inkscape:deskcolor="#d1d1d1"
     showgrid="false"
     inkscape:zoom="1.2575"
     inkscape:cx="138.7674"
     inkscape:cy="139.96024"
     inkscape:window-width="1649"
     inkscape:window-height="1008"
     inkscape:window-x="3376"
     inkscape:window-y="14"
     inkscape:window-maximized="0"
     inkscape:current-layer="svg4" />
  <path
     d="M 356.02353,79.942396 V 113.8234 c 0,11.851 -6.847,22.097 -16.795,27.017 l -0.023,0.036 -38.521,19.374 -0.025,0.004 c -4.053,2.027 -8.625,3.176 -13.465,3.176 -4.947,0 -9.609,-1.201 -13.725,-3.312 l -0.06,-0.008 -17.752,-8.893 c -1.161,-0.582 -2.463,-0.921 -3.847,-0.921 -2.235,0 -4.261,0.862 -5.79,2.259 l -12.73,12.731 c -1.596,1.737 -3.88,2.832 -6.427,2.832 -4.824,0 -8.732,-3.908 -8.732,-8.732 v -47.871 -2.111 -13.330004 c 0,-2.89 2.343,-5.232 5.234,-5.232 0.807,0 1.569,0.187 2.254,0.515 l 0.016,-0.01 42.368,20.305004 14.026,7.028 0.02,10e-4 c 1.508,0.774 3.215,1.215 5.028,1.221 v -0.001 c 0.015,0 0.028,0.001 0.044,0.001 1.787,0 3.476,-0.423 4.974,-1.171 l 0.01,-0.002 14.228,-7.157 0.008,-0.014 c 3.675,-1.817 6.205,-5.601 6.205,-9.98 V 89.063396 h -0.001 v -1.633 c 0,-4.454 -2.617,-8.294004 -6.396,-10.072003 l -14.023,-7.026 -0.021,-0.003 c -1.51,-0.774 -3.216,-1.215 -5.028,-1.222 v 0.002 c -0.015,0 -0.03,-0.002 -0.044,-0.002 -1.789,0 -3.477,0.424 -4.973,1.173 l -0.011,0.002 -12.913,6.496 h -0.016 c -0.745,0.372 -1.582,0.587 -2.473,0.587 -0.891,0 -1.731,-0.216 -2.477,-0.59 h -0.018 l -33.852,-16.913 c -0.158,-0.063 -0.307,-0.147 -0.457,-0.23 l -0.04,-0.019 v -0.001 c -1.371,-0.761 -2.31,-2.207 -2.31,-3.885 0,-1.324 0.586,-2.498 1.501,-3.313 l -0.004,-0.024 c 1.812,-1.515 3.799,-2.827 5.935,-3.884 l 0.024,-0.036 38.521,-19.373 0.027,-0.004 c 4.052,-2.028 8.621,-3.176 13.462,-3.176 4.946,0 9.61,1.198 13.727,3.312 l 0.059,0.005 37.965,19.021 c 10.229,4.814 17.313,15.211 17.313,27.268 z"
     id="path202"
     style="fill:#ffffff" />
</svg>
