<?xml version="1.0" encoding="UTF-8" standalone="no"?>
<svg
   width="85.6521"
   height="25.633619"
   viewBox="0 0 367.08043 142.409"
   version="1.1"
   id="svg4"
   sodipodi:docname="logo.svg"
   inkscape:version="1.2.1 (9c6d41e410, 2022-07-14)"
   xmlns:inkscape="http://www.inkscape.org/namespaces/inkscape"
   xmlns:sodipodi="http://sodipodi.sourceforge.net/DTD/sodipodi-0.dtd"
   xmlns="http://www.w3.org/2000/svg"
   xmlns:svg="http://www.w3.org/2000/svg">
  <defs
     id="defs8" />
  <sodipodi:namedview
     id="namedview6"
     pagecolor="#ffffff"
     bordercolor="#000000"
     borderopacity="0.25"
     inkscape:showpageshadow="2"
     inkscape:pageopacity="0.0"
     inkscape:pagecheckerboard="0"
     inkscape:deskcolor="#d1d1d1"
     showgrid="false"
     inkscape:zoom="8.6428571"
     inkscape:cx="49.115702"
     inkscape:cy="12.842975"
     inkscape:window-width="1920"
     inkscape:window-height="1009"
     inkscape:window-x="-8"
     inkscape:window-y="-8"
     inkscape:window-maximized="1"
     inkscape:current-layer="svg4" />
  <path
     fill="#ffffff"
     fill-rule="evenodd"
     d="m 131.88271,55.714 c 1.941,1.462 4.505,2.199 7.627,2.199 4.861,0 7.544,-2.713 7.544,-7.636 V 35.803 c 0,-4.925 -2.683,-7.632 -7.544,-7.632 -2.581,0 -5.091,0.299 -7.627,0.911 z m -5.444,31.321 c -3.001,0 -5.439,-2.44 -5.439,-5.441 V 26.241 c 0,-2.758 1.734,-5.175 4.415,-6.162 4.403,-1.561 9.136,-2.344 14.095,-2.344 10.844,0 18.42,7.61 18.42,18.505 v 13.602 c 0,10.893 -7.576,18.51 -18.42,18.51 -2.602,0 -5.157,-0.446 -7.627,-1.314 v 14.556 c 0,3.001 -2.443,5.441 -5.444,5.441 z m 62.637,-63.25 c 0,2.954 -2.389,5.26 -5.437,5.26 -0.555,0 -1.065,-0.113 -1.474,-0.205 -0.137,-0.027 -0.277,-0.066 -0.425,-0.087 -1.527,-0.286 -2.651,-0.403 -3.807,-0.403 -1.894,0 -3.069,1.412 -3.069,3.683 V 62.91 c 0,2.997 -2.443,5.441 -5.437,5.441 -3.003,0 -5.439,-2.444 -5.439,-5.441 V 32.294 c 0,-8.436 5.865,-14.56 13.945,-14.56 2.161,0 4.392,0.245 6.817,0.755 2.449,0.459 4.326,2.739 4.326,5.296 z m 11.664,13.163 h 15.18 v -1.145 c 0,-4.923 -2.681,-7.632 -7.544,-7.632 -4.989,0 -7.636,2.642 -7.636,7.632 z m 7.636,31.404 c -10.891,0 -18.508,-7.615 -18.508,-18.51 V 36.24 c 0,-10.893 7.617,-18.506 18.508,-18.506 10.848,0 18.418,7.613 18.418,18.506 v 4.562 c 0,3.628 -2.952,6.585 -6.576,6.585 h -19.478 v 2.455 c 0,5.129 2.787,8.073 7.636,8.073 2.7,0 5.558,-0.721 9.007,-2.248 0.589,-0.237 1.293,-0.476 2.225,-0.476 3.044,0 5.432,2.314 5.432,5.264 0,2.076 -1.13,3.88 -3.02,4.823 -4.172,2.041 -8.756,3.074 -13.644,3.074 z m 83.078,-33.076 V 62.91 c 0,2.997 -2.444,5.442 -5.441,5.442 -2.999,0 -5.441,-2.445 -5.441,-5.442 V 34.836 c 0,-3.675 -2.948,-6.665 -6.578,-6.665 -2.342,0 -4.663,0.648 -6.664,1.843 V 62.91 c 0,2.997 -2.406,5.442 -5.351,5.442 -3.001,0 -5.444,-2.445 -5.444,-5.442 V 31.942 c 0,-2.765 -3.248,-3.771 -5.434,-3.771 -2.788,0 -5.307,0.324 -7.814,1.021 V 62.91 c 0,2.997 -2.442,5.442 -5.432,5.442 -2.999,0 -5.441,-2.445 -5.441,-5.442 V 26.505 c 0,-2.69 1.646,-5.066 4.195,-6.06 4.979,-1.853 9.573,-2.711 14.492,-2.711 4.035,0 7.751,1.207 10.656,3.428 3.735,-2.221 8.011,-3.428 12.237,-3.428 9.628,0 17.46,7.869 17.46,17.542 z m 13.335,-17.541 c 3.003,0 5.441,2.44 5.441,5.432 v 39.744 c 0,2.997 -2.438,5.441 -5.441,5.441 -2.997,0 -5.44,-2.444 -5.44,-5.441 V 23.167 c 0,-2.992 2.443,-5.432 5.44,-5.432 z m 0,-4.652 c -3.528,0 -6.406,-2.91 -6.406,-6.491 0,-3.53 2.878,-6.401 6.406,-6.401 3.534,0 6.411,2.871 6.411,6.401 0,3.581 -2.877,6.491 -6.411,6.491 z m 44.83,4.651 c 3.001,0 5.432,2.44 5.432,5.435 v 36.672 c 0,2.781 -1.808,5.328 -4.393,6.188 -4.614,1.54 -9.332,2.322 -14.027,2.322 -11.239,0 -18.503,-7.275 -18.503,-18.507 V 23.169 c 0,-2.995 2.438,-5.435 5.439,-5.435 2.994,0 5.434,2.44 5.434,5.435 v 27.108 c 0,4.993 2.635,7.638 7.63,7.638 2.508,0 5.085,-0.314 7.549,-0.915 V 23.169 c 0,-2.995 2.44,-5.435 5.439,-5.435 z m 54.388,0 c 9.626,0 17.456,7.869 17.456,17.542 V 62.91 c 0,2.997 -2.44,5.442 -5.437,5.442 -2.997,0 -5.437,-2.445 -5.437,-5.442 V 34.836 c 0,-3.675 -2.952,-6.665 -6.582,-6.665 -2.338,0 -4.667,0.648 -6.665,1.843 V 62.91 c 0,2.997 -2.4,5.442 -5.352,5.442 -3.001,0 -5.441,-2.445 -5.441,-5.442 V 31.942 c 0,-2.765 -3.249,-3.771 -5.439,-3.771 -2.775,0 -5.303,0.324 -7.809,1.021 V 62.91 c 0,2.997 -2.436,5.442 -5.437,5.442 -2.999,0 -5.437,-2.445 -5.437,-5.442 V 26.505 c 0,-2.69 1.649,-5.066 4.202,-6.06 4.968,-1.853 9.564,-2.711 14.481,-2.711 4.039,0 7.753,1.207 10.656,3.428 3.741,-2.221 8.018,-3.428 12.241,-3.428 z m -241.427,74.059 c 9.628,0 17.456,7.871 17.456,17.542 v 27.635 c 0,2.996 -2.438,5.439 -5.437,5.439 -2.997,0 -5.441,-2.443 -5.441,-5.439 v -28.072 c 0,-3.684 -2.95,-6.668 -6.578,-6.668 -2.336,0 -4.665,0.648 -6.666,1.845 v 32.895 c 0,2.996 -2.4,5.439 -5.35,5.439 -2.998,0 -5.441,-2.443 -5.441,-5.439 v -30.965 c 0,-2.77 -3.252,-3.775 -5.437,-3.775 -2.781,0 -5.306,0.328 -7.804,1.02 v 33.72 c 0,2.996 -2.44,5.439 -5.441,5.439 -3.004,0 -5.44,-2.443 -5.44,-5.439 v -36.406 c 0,-2.687 1.649,-5.068 4.2,-6.06 4.972,-1.851 9.565,-2.711 14.485,-2.711 4.042,0 7.756,1.208 10.659,3.424 3.735,-2.214 8.013,-3.424 12.235,-3.424 z m 30.799,-17.543 c 3.528,0 6.398,2.869 6.398,6.401 0,3.575 -2.87,6.493 -6.398,6.493 -3.533,0 -6.408,-2.918 -6.408,-6.493 0,-3.532 2.875,-6.401 6.408,-6.401 z m 0,17.544 c 2.988,0 5.441,2.438 5.441,5.437 v 39.739 c 0,2.997 -2.453,5.437 -5.441,5.437 -2.999,0 -5.44,-2.44 -5.44,-5.437 V 97.231 c 0,-2.999 2.441,-5.437 5.44,-5.437 z m 32.283,-10e-4 c 10.847,0 18.417,7.611 18.417,18.506 v 26.671 c 0,2.996 -2.438,5.439 -5.435,5.439 -2.999,0 -5.433,-2.443 -5.433,-5.439 v -27.108 c 0,-4.928 -2.685,-7.632 -7.549,-7.632 -2.606,0 -5.157,0.303 -7.638,0.902 v 33.838 c 0,2.996 -2.436,5.439 -5.432,5.439 -3.004,0 -5.444,-2.443 -5.444,-5.439 V 100.3 c 0,-2.754 1.741,-5.177 4.415,-6.165 4.305,-1.555 9.049,-2.342 14.099,-2.342 z m 49.654,12.634 c -1.945,-1.463 -4.509,-2.197 -7.631,-2.197 -4.868,0 -7.547,2.705 -7.547,7.632 v 14.479 c 0,4.916 2.679,7.629 7.547,7.629 2.6,0 5.159,-0.307 7.631,-0.904 z m 5.435,-30.177 c 3.001,0 5.441,2.434 5.441,5.437 v 54.214 c 0,2.809 -1.864,5.362 -4.524,6.198 -4.645,1.551 -9.229,2.308 -13.983,2.308 -10.851,0 -18.425,-7.606 -18.425,-18.512 v -13.596 c 0,-11.068 7.404,-18.505 18.425,-18.505 2.6,0 5.155,0.441 7.631,1.312 V 79.687 c 0,-3.003 2.438,-5.437 5.435,-5.437 z m 32.591,38.777 c 6.45,2.577 10.308,7.794 10.308,13.941 0,8.799 -7.09,15.441 -16.494,15.441 -4.543,0 -8.677,-0.915 -12.627,-2.782 -1.969,-0.911 -3.159,-2.764 -3.159,-4.938 0,-2.954 2.389,-5.262 5.439,-5.262 0.86,0 1.502,0.261 1.966,0.459 l 0.169,0.062 c 3.221,1.41 5.806,2.024 8.476,2.024 2.66,0 5.356,-1.391 5.356,-4.038 0,-2.128 -0.629,-3.476 -4.035,-4.935 l -8.225,-3.415 c -6.077,-2.585 -9.146,-7.09 -9.146,-13.404 0,-8.335 7.007,-14.387 16.665,-14.387 4.204,0 8.028,0.787 11.695,2.404 2.052,0.945 3.306,2.88 3.306,5.053 0,2.895 -2.389,5.173 -5.437,5.173 -0.857,0 -1.583,-0.256 -2.054,-0.442 -2.511,-1.167 -5.301,-1.751 -8.214,-1.751 -0.847,0 -5.083,0.179 -5.083,3.686 0,1.73 0.96,3.003 2.858,3.781 z M 83.50971,54.025 v 33.881 c 0,11.851 -6.847,22.097 -16.795,27.017 l -0.023,0.036 -38.521,19.374 -0.025,0.004 c -4.053,2.027 -8.625,3.176 -13.465,3.176 -4.9470015,0 -9.6090015,-1.201 -13.72500165,-3.312 l -0.06,-0.008 L -16.85629,125.3 c -1.161,-0.582 -2.463,-0.921 -3.847,-0.921 -2.235,0 -4.261,0.862 -5.79,2.259 l -12.73,12.731 c -1.596,1.737 -3.88,2.832 -6.427,2.832 -4.824,0 -8.732,-3.908 -8.732,-8.732 V 85.598 83.487 70.157 c 0,-2.89 2.343,-5.232 5.234,-5.232 0.807,0 1.569,0.187 2.254,0.515 l 0.016,-0.01 42.3679985,20.305 14.026,7.028 0.02,10e-4 c 1.5080015,0.774 3.2150015,1.215 5.0280015,1.221 v -0.001 c 0.015,0 0.028,0.001 0.044,0.001 1.787,0 3.476,-0.423 4.974,-1.171 l 0.01,-0.002 14.228,-7.157 0.008,-0.014 c 3.675,-1.817 6.205,-5.601 6.205,-9.98 V 63.146 h -0.001 v -1.633 c 0,-4.454 -2.617,-8.294 -6.396,-10.072 l -14.023,-7.026 -0.021,-0.003 c -1.51,-0.774 -3.216,-1.215 -5.028,-1.222 v 0.002 c -0.015,0 -0.03,-0.002 -0.044,-0.002 -1.789,0 -3.477,0.424 -4.9730015,1.173 l -0.011,0.002 -12.913,6.496 h -0.016 c -0.745,0.372 -1.582,0.587 -2.473,0.587 -0.891,0 -1.731,-0.216 -2.477,-0.59 h -0.018 L -42.21329,33.945 c -0.158,-0.063 -0.307,-0.147 -0.457,-0.23 l -0.04,-0.019 v -10e-4 c -1.371,-0.761 -2.31,-2.207 -2.31,-3.885 0,-1.324 0.586,-2.498 1.501,-3.313 l -0.004,-0.024 c 1.812,-1.515 3.799,-2.827 5.935,-3.884 l 0.024,-0.036 38.52099835,-19.373 0.027,-0.004 C 5.0357085,1.148 9.6047085,0 14.44571,0 c 4.946,0 9.61,1.198 13.727,3.312 l 0.059,0.005 37.965,19.021 c 10.229,4.814 17.313,15.211 17.313,27.268 z"
     id="path2" />
</svg>
